<?xml version="1.0" encoding="UTF-8"?>
<svg width="600" height="400" viewBox="0 0 600 400" fill="none" xmlns="http://www.w3.org/2000/svg">
  <!-- Background rectangles -->
  <rect x="100" y="50" width="400" height="300" rx="8" fill="#E6EFFF" />
  <rect x="120" y="75" width="360" height="250" rx="4" fill="white" stroke="#4A6CFF" stroke-width="2" />
  
  <!-- Resume Header -->
  <rect x="120" y="75" width="360" height="60" rx="4" fill="#4A6CFF" />
  <circle cx="150" cy="105" r="15" fill="white" />
  
  <!-- Name and title -->
  <rect x="180" y="90" width="200" height="12" rx="2" fill="white" />
  <rect x="180" y="110" width="150" height="8" rx="2" fill="white" opacity="0.7" />
  
  <!-- Contact info -->
  <rect x="400" y="90" width="60" height="8" rx="2" fill="white" opacity="0.7" />
  <rect x="400" y="105" width="60" height="8" rx="2" fill="white" opacity="0.7" />
  
  <!-- Resume Content -->
  <!-- Experience section -->
  <rect x="140" y="155" width="100" height="10" rx="2" fill="#4A6CFF" opacity="0.8" />
  <rect x="140" y="175" width="320" height="1" fill="#E0E0E0" />
  
  <!-- Experience entry 1 -->
  <rect x="140" y="190" width="180" height="10" rx="2" fill="#333333" />
  <rect x="140" y="205" width="150" height="8" rx="2" fill="#666666" />
  <rect x="140" y="220" width="300" height="6" rx="2" fill="#999999" />
  <rect x="140" y="230" width="290" height="6" rx="2" fill="#999999" />
  <rect x="140" y="240" width="280" height="6" rx="2" fill="#999999" />
  
  <!-- Skills section -->
  <rect x="140" y="265" width="80" height="10" rx="2" fill="#4A6CFF" opacity="0.8" />
  <rect x="140" y="285" width="320" height="1" fill="#E0E0E0" />
  
  <!-- Skill bars -->
  <rect x="140" y="300" width="60" height="8" rx="2" fill="#333333" />
  <rect x="220" y="300" width="200" height="8" rx="4" fill="#EEEEEE" />
  <rect x="220" y="300" width="160" height="8" rx="4" fill="#4A6CFF" />
  
  <rect x="140" y="315" width="70" height="8" rx="2" fill="#333333" />
  <rect x="220" y="315" width="200" height="8" rx="4" fill="#EEEEEE" />
  <rect x="220" y="315" width="140" height="8" rx="4" fill="#4A6CFF" />
</svg>
